
<svg xmlns="http://www.w3.org/2000/svg" xmlns:xlink="http://www.w3.org/1999/xlink" viewBox="0 0 20 20" width="20" height="20" fill="none">
  <svg xmlns="http://www.w3.org/2000/svg" height="20" width="20" viewBox="0 0 24 24" fill="#030303" x="0" y="0" opacity="100%">
    <path d="M0 0h24v24H0z" fill="none"></path>
    <path d="M22.73 22.73 2.77 2.77 2 2l-.73-.73L0 2.54l4.39 4.39 2.21 4.66-1.35 2.45c-.16.28-.25.61-.25.96 0 1.1.9 2 2 2h7.46l1.38 1.38A1.997 1.997 0 0 0 17 22c.67 0 1.26-.33 1.62-.84L21.46 24l1.27-1.27zM7.42 15c-.14 0-.25-.11-.25-.25l.03-.12.9-1.63h2.36l2 2H7.42zm8.13-2c.75 0 1.41-.41 1.75-1.03l3.58-6.49A1.003 1.003 0 0 0 20 4H6.54l9.01 9zM7 18c-1.1 0-1.99.9-1.99 2S5.9 22 7 22s2-.9 2-2-.9-2-2-2z"></path>
  </svg>
  <defs>
    <filter id="filter_dshadow_0_0_0_00000014" color-interpolation-filters="sRGB" filterUnits="userSpaceOnUse">
      <feFlood flood-opacity="0" result="bg-fix"></feFlood>
      <feColorMatrix in="SourceAlpha" type="matrix" values="0 0 0 0 0 0 0 0 0 0 0 0 0 0 0 0 0 0 127 0" result="alpha"></feColorMatrix>
      <feOffset dx="0" dy="0"></feOffset>
      <feGaussianBlur stdDeviation="0"></feGaussianBlur>
      <feComposite in2="alpha" operator="out"></feComposite>
      <feColorMatrix type="matrix" values="0 0 0 0 0 0 0 0 0 0  0 0 0 0 0 0 0 0 0.08 0"></feColorMatrix>
      <feBlend mode="normal" in2="bg-fix" result="bg-fix-filter_dshadow_0_0_0_00000014"></feBlend>
      <feBlend in="SourceGraphic" in2="bg-fix-filter_dshadow_0_0_0_00000014" result="shape"></feBlend>
    </filter>
  </defs>
</svg>